<?xml version="1.0" encoding="utf-8"?>
<!-- Generator: Adobe Illustrator 26.0.2, SVG Export Plug-In . SVG Version: 6.00 Build 0)  -->
<svg version="1.0" id="圖層_1" xmlns="http://www.w3.org/2000/svg" xmlns:xlink="http://www.w3.org/1999/xlink" x="0px" y="0px"
	 viewBox="0 0 35 35" style="enable-background:new 0 0 35 35;" xml:space="preserve">
<style type="text/css">
	.st0{fill:#FFFFFF;}
	.st1{fill:#29AAE1;}
</style>
<circle class="st0" cx="17.5" cy="17.5" r="16.5"/>
<path class="st0" d="M17.5,35C7.8,35,0,27.2,0,17.5S7.8,0,17.5,0S35,7.8,35,17.5C35,27.2,27.2,35,17.5,35z M17.5,2
	C8.9,2,2,8.9,2,17.5S8.9,33,17.5,33S33,26.1,33,17.5S26.1,2,17.5,2z"/>
<path class="st1" d="M17.5,34c3.8,0,7.5-1.3,10.5-3.8c-2.6-5.8-9.3-8.4-15.1-5.9c-2.6,1.2-4.7,3.2-5.9,5.9C10,32.7,13.7,34,17.5,34z
	"/>
<circle class="st1" cx="17.5" cy="15.4" r="6.2"/>
</svg>
